<svg width="194" height="96" viewBox="0 0 194 96" fill="none" xmlns="http://www.w3.org/2000/svg">
<rect width="194" height="96" rx="14" fill="#4284F3"/>
<path d="M23.554 32.2969V26.8182H56.1996V32.2969H43.0384V69H36.6946V32.2969H23.554ZM71.9663 69.6385C68.8493 69.6385 66.1649 68.9725 63.913 67.6406C61.6748 66.295 59.9447 64.407 58.7227 61.9766C57.5143 59.5324 56.9102 56.6695 56.9102 53.3878C56.9102 50.1473 57.5143 47.2912 58.7227 44.8196C59.9447 42.348 61.6474 40.4188 63.8306 39.032C66.0276 37.6451 68.5953 36.9517 71.5337 36.9517C73.3188 36.9517 75.0489 37.2469 76.7241 37.8374C78.3993 38.4278 79.9028 39.3546 81.2347 40.6179C82.5666 41.8812 83.6171 43.522 84.386 45.5405C85.155 47.5452 85.5394 49.9825 85.5394 52.8523V55.0355H60.391V50.4219H79.5046C79.5046 48.8016 79.1751 47.3667 78.516 46.1172C77.8569 44.8539 76.93 43.8584 75.7354 43.1307C74.5546 42.4029 73.1677 42.0391 71.5749 42.0391C69.8448 42.0391 68.3344 42.4647 67.0437 43.3161C65.7667 44.1536 64.7781 45.2521 64.0778 46.6115C63.3912 47.9571 63.0479 49.4195 63.0479 50.9986V54.603C63.0479 56.7176 63.4187 58.5163 64.1602 59.9993C64.9154 61.4822 65.9658 62.6151 67.3114 63.3977C68.6571 64.1667 70.2293 64.5511 72.0281 64.5511C73.1952 64.5511 74.2594 64.3864 75.2205 64.0568C76.1817 63.7135 77.0124 63.2055 77.7127 62.5327C78.413 61.8598 78.9485 61.0291 79.3192 60.0405L85.1481 61.0909C84.6812 62.8073 83.8436 64.3108 82.6353 65.6016C81.4407 66.8786 79.9371 67.8741 78.1246 68.5881C76.3259 69.2884 74.2731 69.6385 71.9663 69.6385ZM96.4968 37.3636L103.479 49.6804L110.523 37.3636H117.258L107.392 53.1818L117.341 69H110.605L103.479 57.1776L96.3732 69H89.6175L99.4627 53.1818L89.7411 37.3636H96.4968ZM138.349 37.3636V42.3068H121.069V37.3636H138.349ZM125.703 29.7841H131.861V59.7109C131.861 60.9055 132.04 61.8049 132.397 62.4091C132.754 62.9995 133.214 63.4046 133.777 63.6243C134.353 63.8303 134.978 63.9332 135.651 63.9332C136.145 63.9332 136.578 63.8989 136.949 63.8303C137.319 63.7616 137.608 63.7067 137.814 63.6655L138.926 68.7528C138.569 68.8902 138.061 69.0275 137.402 69.1648C136.743 69.3158 135.919 69.3982 134.93 69.4119C133.31 69.4394 131.799 69.151 130.399 68.5469C128.998 67.9427 127.865 67.009 127 65.7457C126.135 64.4825 125.703 62.8965 125.703 60.9879V29.7841ZM149.054 80.8636C148.134 80.8636 147.297 80.7881 146.541 80.6371C145.786 80.4998 145.223 80.3487 144.852 80.1839L146.335 75.1378C147.461 75.4399 148.464 75.5703 149.343 75.5291C150.221 75.4879 150.997 75.1584 151.67 74.5405C152.356 73.9226 152.961 72.9134 153.482 71.5128L154.244 69.4119L142.669 37.3636H149.26L157.272 61.9148H157.602L165.614 37.3636H172.225L159.188 73.2223C158.584 74.87 157.815 76.2637 156.881 77.4034C155.947 78.5568 154.835 79.4219 153.544 79.9986C152.253 80.5753 150.757 80.8636 149.054 80.8636Z" fill="white"/>
</svg>
